<svg width="40" height="28" viewBox="0 0 40 28" xmlns="http://www.w3.org/2000/svg">
    <path d="M2.569 28C.856 28 0 27.476 0 26.428c0-.479.201-.817.603-1.014.402-.198.95-.389 1.643-.574 1.748-.425 3.284-1.048 4.609-1.87 1.324-.823 2.34-1.8 3.047-2.93.708-1.13 1.061-2.442 1.061-3.936 0-1.167-.429-2.109-1.288-2.827a7.58 7.58 0 0 0-2.907-1.516 5.9 5.9 0 0 1-3.076-1.858c-.843-.946-1.264-2.22-1.264-3.825 0-1.693.722-3.13 2.167-4.309C6.04.589 7.67 0 9.485 0c3.036 0 5.5.959 7.388 2.876 1.89 1.918 2.835 4.367 2.835 7.346 0 2.662-.506 5.078-1.518 7.247-1.011 2.169-2.348 4.044-4.01 5.627-1.662 1.582-3.498 2.795-5.51 3.639C6.658 27.578 4.624 28 2.569 28zm20.292 0c-1.711 0-2.567-.524-2.567-1.572 0-.479.201-.817.603-1.014.402-.198.95-.389 1.643-.574 1.748-.425 3.284-1.048 4.608-1.87 1.323-.823 2.339-1.8 3.046-2.93.708-1.13 1.062-2.442 1.062-3.936 0-1.167-.43-2.109-1.288-2.827a7.572 7.572 0 0 0-2.906-1.516 5.9 5.9 0 0 1-3.076-1.858c-.843-.946-1.264-2.22-1.264-3.825 0-1.693.722-3.13 2.167-4.309C26.334.589 27.964 0 29.779 0c3.036 0 5.499.959 7.388 2.876C39.056 4.794 40 7.243 40 10.222c0 2.662-.506 5.078-1.517 7.247-1.012 2.169-2.349 4.044-4.01 5.627-1.662 1.582-3.5 2.795-5.51 3.639C26.95 27.578 24.916 28 22.86 28z" fill="#8CD734" fill-rule="nonzero"/>
</svg>
