<svg xmlns="http://www.w3.org/2000/svg" width="50px" height="50px" viewBox="0 0 50 50">
    <path fill="#fff" d="M25,0 C11.1928813,0 0,11.1928813 0,25 C0,38.8071187 11.1928813,50 25,50 C38.8071187,50 50,38.8071187 50,25 C50,20.2678938 48.6852453,15.8428651 46.4010966,12.0702745 L43.8752441,13.6848145 C45.9084473,16.8387858 46.9250488,20.6105143 46.9250488,25 C46.9250488,40.4908447 33.6070557,47.0036621 25,47.0036621 C11.7799072,47.0036621 3.00219727,36.1429443 3.00219727,25 C3.00219727,13.4387207 12.1713867,2.99926758 25,2.99926758 C25,2.99926758 25,1.99951172 25,0 Z" id="Oval-3"></path>
</svg>